<?xml version="1.0" encoding="us-ascii" standalone="no"?><svg xmlns="http://www.w3.org/2000/svg" xmlns:xlink="http://www.w3.org/1999/xlink" contentStyleType="text/css" height="606px" preserveAspectRatio="none" style="width:565px;height:606px;background:#FFFFFF;" version="1.1" viewBox="0 0 565 606" width="565px" zoomAndPan="magnify"><defs/><g><!--cluster MasterDirect--><g id="cluster_MasterDirect"><rect fill="#FFA500" height="113" rx="2.5" ry="2.5" style="stroke:#181818;stroke-width:1.0;" width="116" x="443.625" y="7"/><rect fill="#FFA500" height="10" style="stroke:#181818;stroke-width:1.0;" width="15" x="539.625" y="12"/><rect fill="#FFA500" height="2" style="stroke:#181818;stroke-width:1.0;" width="4" x="537.625" y="14"/><rect fill="#FFA500" height="2" style="stroke:#181818;stroke-width:1.0;" width="4" x="537.625" y="18"/><text fill="#000000" font-family="sans-serif" font-size="14" font-weight="bold" lengthAdjust="spacing" textLength="106" x="448.625" y="32.9951">MasterDirect</text></g><!--cluster MasterBlocking--><g id="cluster_MasterBlocking"><rect fill="#FFA500" height="113" rx="2.5" ry="2.5" style="stroke:#181818;stroke-width:1.0;" width="136" x="7" y="7"/><rect fill="#FFA500" height="10" style="stroke:#181818;stroke-width:1.0;" width="15" x="123" y="12"/><rect fill="#FFA500" height="2" style="stroke:#181818;stroke-width:1.0;" width="4" x="121" y="14"/><rect fill="#FFA500" height="2" style="stroke:#181818;stroke-width:1.0;" width="4" x="121" y="18"/><text fill="#000000" font-family="sans-serif" font-size="14" font-weight="bold" lengthAdjust="spacing" textLength="126" x="12" y="32.9951">MasterBlocking</text></g><!--cluster MasterNonBlocking--><g id="cluster_MasterNonBlocking"><rect fill="#FFA500" height="113" rx="2.5" ry="2.5" style="stroke:#181818;stroke-width:1.0;" width="167" x="189" y="7"/><rect fill="#FFA500" height="10" style="stroke:#181818;stroke-width:1.0;" width="15" x="336" y="12"/><rect fill="#FFA500" height="2" style="stroke:#181818;stroke-width:1.0;" width="4" x="334" y="14"/><rect fill="#FFA500" height="2" style="stroke:#181818;stroke-width:1.0;" width="4" x="334" y="18"/><text fill="#000000" font-family="sans-serif" font-size="14" font-weight="bold" lengthAdjust="spacing" textLength="157" x="194" y="32.9951">MasterNonBlocking</text></g><!--cluster Bus--><g id="cluster_Bus"><rect fill="#FFFF00" height="175" rx="2.5" ry="2.5" style="stroke:#181818;stroke-width:1.0;" width="225" x="184" y="216"/><rect fill="#FFFF00" height="10" style="stroke:#181818;stroke-width:1.0;" width="15" x="389" y="221"/><rect fill="#FFFF00" height="2" style="stroke:#181818;stroke-width:1.0;" width="4" x="387" y="223"/><rect fill="#FFFF00" height="2" style="stroke:#181818;stroke-width:1.0;" width="4" x="387" y="227"/><text fill="#000000" font-family="sans-serif" font-size="14" font-weight="bold" lengthAdjust="spacing" textLength="30" x="281.5" y="241.9951">Bus</text></g><!--cluster FastMem--><g id="cluster_FastMem"><rect fill="#FF00FF" height="113" rx="2.5" ry="2.5" style="stroke:#181818;stroke-width:1.0;" width="94" x="8" y="487"/><rect fill="#FF00FF" height="10" style="stroke:#181818;stroke-width:1.0;" width="15" x="82" y="492"/><rect fill="#FF00FF" height="2" style="stroke:#181818;stroke-width:1.0;" width="4" x="80" y="494"/><rect fill="#FF00FF" height="2" style="stroke:#181818;stroke-width:1.0;" width="4" x="80" y="498"/><text fill="#000000" font-family="sans-serif" font-size="14" font-weight="bold" lengthAdjust="spacing" textLength="74" x="18" y="512.9951">FastMem</text></g><!--cluster SlowMem--><g id="cluster_SlowMem"><rect fill="#FF00FF" height="113" rx="2.5" ry="2.5" style="stroke:#181818;stroke-width:1.0;" width="86" x="138" y="487"/><rect fill="#FF00FF" height="10" style="stroke:#181818;stroke-width:1.0;" width="15" x="204" y="492"/><rect fill="#FF00FF" height="2" style="stroke:#181818;stroke-width:1.0;" width="4" x="202" y="494"/><rect fill="#FF00FF" height="2" style="stroke:#181818;stroke-width:1.0;" width="4" x="202" y="498"/><text fill="#000000" font-family="sans-serif" font-size="14" font-weight="bold" lengthAdjust="spacing" textLength="76" x="143" y="512.9951">SlowMem</text></g><!--cluster UART--><g id="cluster_UART"><rect fill="#FF00FF" height="113" rx="2.5" ry="2.5" style="stroke:#181818;stroke-width:1.0;" width="67" x="295" y="487"/><rect fill="#FF00FF" height="10" style="stroke:#181818;stroke-width:1.0;" width="15" x="342" y="492"/><rect fill="#FF00FF" height="2" style="stroke:#181818;stroke-width:1.0;" width="4" x="340" y="494"/><rect fill="#FF00FF" height="2" style="stroke:#181818;stroke-width:1.0;" width="4" x="340" y="498"/><text fill="#000000" font-family="sans-serif" font-size="14" font-weight="bold" lengthAdjust="spacing" textLength="44" x="306.5" y="512.9951">UART</text></g><!--cluster Arbiter--><g id="cluster_Arbiter"><rect fill="#00FFFF" height="113" rx="2.5" ry="2.5" style="stroke:#181818;stroke-width:1.0;" width="78" x="398" y="487"/><rect fill="#00FFFF" height="10" style="stroke:#181818;stroke-width:1.0;" width="15" x="456" y="492"/><rect fill="#00FFFF" height="2" style="stroke:#181818;stroke-width:1.0;" width="4" x="454" y="494"/><rect fill="#00FFFF" height="2" style="stroke:#181818;stroke-width:1.0;" width="4" x="454" y="498"/><text fill="#000000" font-family="sans-serif" font-size="14" font-weight="bold" lengthAdjust="spacing" textLength="57" x="408.5" y="512.9951">Arbiter</text></g><text fill="#000000" font-family="sans-serif" font-size="14" lengthAdjust="spacing" textLength="76" x="424" y="138.9951">DirectPort</text><rect fill="#F1F1F1" height="12" style="stroke:#181818;stroke-width:1.5;" width="12" x="456" y="114"/><text fill="#000000" font-family="sans-serif" font-size="14" lengthAdjust="spacing" textLength="93" x="74.5" y="138.9951">BlockingPort</text><rect fill="#F1F1F1" height="12" style="stroke:#181818;stroke-width:1.5;" width="12" x="115" y="114"/><text fill="#000000" font-family="sans-serif" font-size="14" lengthAdjust="spacing" textLength="121" x="240" y="138.9951">NonBlockingPort</text><rect fill="#F1F1F1" height="12" style="stroke:#181818;stroke-width:1.5;" width="12" x="294.5" y="114"/><text fill="#000000" font-family="sans-serif" font-size="14" lengthAdjust="spacing" textLength="45" x="368.5" y="194.6982">Direct</text><rect fill="#F1F1F1" height="12" style="stroke:#181818;stroke-width:1.5;" width="12" x="385" y="210"/><text fill="#000000" font-family="sans-serif" font-size="14" lengthAdjust="spacing" textLength="62" x="171" y="194.6982">Blocking</text><rect fill="#F1F1F1" height="12" style="stroke:#181818;stroke-width:1.5;" width="12" x="196" y="210"/><text fill="#000000" font-family="sans-serif" font-size="14" lengthAdjust="spacing" textLength="90" x="255.5" y="194.6982">NonBlocking</text><rect fill="#F1F1F1" height="12" style="stroke:#181818;stroke-width:1.5;" width="12" x="294.5" y="210"/><text fill="#000000" font-family="sans-serif" font-size="14" lengthAdjust="spacing" textLength="69" x="169.5" y="409.9951">SlavePort</text><rect fill="#F1F1F1" height="12" style="stroke:#181818;stroke-width:1.5;" width="12" x="198" y="385"/><text fill="#000000" font-family="sans-serif" font-size="14" lengthAdjust="spacing" textLength="83" x="258.5" y="409.9951">ArbiterPort</text><rect fill="#F1F1F1" height="12" style="stroke:#181818;stroke-width:1.5;" width="12" x="294" y="385"/><text fill="#000000" font-family="sans-serif" font-size="14" lengthAdjust="spacing" textLength="68" x="50" y="465.6982">FastSlave</text><rect fill="#F1F1F1" height="12" style="stroke:#181818;stroke-width:1.5;" width="12" x="78" y="481"/><text fill="#000000" font-family="sans-serif" font-size="14" lengthAdjust="spacing" textLength="71" x="168" y="465.6982">SlowSlave</text><rect fill="#F1F1F1" height="12" style="stroke:#181818;stroke-width:1.5;" width="12" x="197.5" y="481"/><text fill="#000000" font-family="sans-serif" font-size="14" lengthAdjust="spacing" textLength="76" x="275" y="465.6982">UARTSlave</text><rect fill="#F1F1F1" height="12" style="stroke:#181818;stroke-width:1.5;" width="12" x="307" y="481"/><text fill="#000000" font-family="sans-serif" font-size="14" lengthAdjust="spacing" textLength="67" x="382.5" y="465.6982">Arbitrate</text><rect fill="#F1F1F1" height="12" style="stroke:#181818;stroke-width:1.5;" width="12" x="410" y="481"/><!--link DirectPort to Direct--><g id="link_DirectPort_Direct"><path d="M458.183,126.054 C445.855,142.375 410.8073,188.7763 398.4523,205.1333 " fill="none" id="DirectPort-to-Direct" style="stroke:#181818;stroke-width:1.0;"/><polygon fill="#181818" points="394.836,209.921,403.4523,205.1503,397.8496,205.9312,397.0687,200.3285,394.836,209.921" style="stroke:#181818;stroke-width:1.0;"/></g><!--link BlockingPort to Blocking--><g id="link_BlockingPort_Blocking"><path d="M125.355,126.054 C139.419,142.375 179.6123,189.0187 193.7073,205.3757 " fill="none" id="BlockingPort-to-Blocking" style="stroke:#181818;stroke-width:1.0;"/><polygon fill="#181818" points="197.624,209.921,194.7791,200.492,194.3601,206.1333,188.7188,205.7142,197.624,209.921" style="stroke:#181818;stroke-width:1.0;"/></g><!--link NonBlockingPort to NonBlocking--><g id="link_NonBlockingPort_NonBlocking"><path d="M301,126.054 C301,142.375 301,187.564 301,203.921 " fill="none" id="NonBlockingPort-to-NonBlocking" style="stroke:#181818;stroke-width:1.0;"/><polygon fill="#181818" points="301,209.921,305,200.921,301,204.921,297,200.921,301,209.921" style="stroke:#181818;stroke-width:1.0;"/></g><!--link ArbiterPort to Arbitrate--><g id="link_ArbiterPort_Arbitrate"><path d="M306.237,397.054 C326.378,413.375 384.8853,460.7866 405.0713,477.1436 " fill="none" id="ArbiterPort-to-Arbitrate" style="stroke:#181818;stroke-width:1.0;"/><polygon fill="#181818" points="409.733,480.921,405.2588,472.1471,405.8483,477.7732,400.2222,478.3627,409.733,480.921" style="stroke:#181818;stroke-width:1.0;"/></g><!--link SlavePort to FastSlave--><g id="link_SlavePort_FastSlave"><path d="M197.884,396.791 C177.347,412.878 115.7023,461.166 94.9707,477.406 " fill="none" id="SlavePort-to-FastSlave" style="stroke:#181818;stroke-width:1.0;"/><polygon fill="#181818" points="90.2474,481.106,99.7991,478.7049,94.1835,478.0227,94.8657,472.4071,90.2474,481.106" style="stroke:#181818;stroke-width:1.0;"/></g><!--link SlavePort to SlowSlave--><g id="link_SlavePort_SlowSlave"><path d="M204,397.054 C204,413.375 204,458.564 204,474.921 " fill="none" id="SlavePort-to-SlowSlave" style="stroke:#181818;stroke-width:1.0;"/><polygon fill="#181818" points="204,480.921,208,471.921,204,475.921,200,471.921,204,480.921" style="stroke:#181818;stroke-width:1.0;"/></g><!--link SlavePort to UARTSlave--><g id="link_SlavePort_UARTSlave"><path d="M209.86,397.054 C228.786,413.375 283.6003,460.6455 302.5673,477.0025 " fill="none" id="SlavePort-to-UARTSlave" style="stroke:#181818;stroke-width:1.0;"/><polygon fill="#181818" points="307.111,480.921,302.9077,472.0141,303.3246,477.6556,297.6831,478.0724,307.111,480.921" style="stroke:#181818;stroke-width:1.0;"/></g><!--SRC=[VL3B3e8m4Bpp5Plqp2-OG8mtr8WUFDQc8OtGOYbwCFwxROK-U7ZScPsTcIMYQGMdN461EqNbbabA5A23nBoYy4u0MY6Lw1NygAEUaaz29hgy5kJEUBMe7CaLxLxml_A0drt8-mxGbTQrU3aDuqDMFuzwZmH70wkonazgJJoMoHlJAGTh_mL8qyre5EQpkBiz2M_9qDjNsUbd5BG1LE1AppZiOpYRBIfVwjPh2iFD5PViT5vSDyHyVQWEA7lqqReb95PcFVYFRUSvzqsB-munxfF6k8lq1G00]--></g></svg>