<?xml version="1.0" encoding="us-ascii" standalone="no"?><svg xmlns="http://www.w3.org/2000/svg" xmlns:xlink="http://www.w3.org/1999/xlink" contentStyleType="text/css" height="1436px" preserveAspectRatio="none" style="width:1224px;height:1436px;background:#FFFFFF;" version="1.1" viewBox="0 0 1224 1436" width="1224px" zoomAndPan="magnify"><defs/><g><!--class DirectIF--><g id="elem_DirectIF"><rect codeLine="1" fill="#F1F1F1" height="88.8594" id="DirectIF" rx="2.5" ry="2.5" style="stroke:#181818;stroke-width:0.5;" width="152" x="776" y="216.5"/><ellipse cx="808.1" cy="236.6328" fill="#B4A7E5" rx="11" ry="11" style="stroke:#181818;stroke-width:1.0;"/><path d="M809.0531,233.4141 L810.7719,233.4141 C811.1625,233.4141 811.35,233.3828 811.475,233.3047 C811.7406,233.1484 811.8813,232.8672 811.8813,232.5703 C811.8813,232.3047 811.7719,232.0391 811.5375,231.8672 C811.3656,231.7578 811.225,231.7266 810.7719,231.7266 L805.6313,231.7266 C805.1938,231.7266 805.0688,231.7422 804.9125,231.8359 C804.6625,231.9922 804.5063,232.2891 804.5063,232.5703 C804.5063,232.8516 804.6469,233.1016 804.8656,233.2734 C805.0219,233.3828 805.2094,233.4141 805.6313,233.4141 L807.35,233.4141 L807.35,239.9297 L805.6313,239.9297 C805.1938,239.9297 805.0688,239.9453 804.9125,240.0547 C804.6625,240.2109 804.5063,240.4922 804.5063,240.7891 C804.5063,241.0391 804.6469,241.3047 804.8656,241.4609 C805.0219,241.5859 805.225,241.6328 805.6313,241.6328 L810.7719,241.6328 C811.5219,241.6328 811.8813,241.3516 811.8813,240.7891 C811.8813,240.5078 811.7719,240.2578 811.5375,240.0859 C811.3656,239.9609 811.225,239.9297 810.7719,239.9297 L809.0531,239.9297 L809.0531,233.4141 Z " fill="#000000"/><text fill="#000000" font-family="sans-serif" font-size="12" font-style="italic" lengthAdjust="spacing" textLength="86" x="823.9" y="232.6387">&#171;sc_interface&#187;</text><text fill="#000000" font-family="sans-serif" font-size="14" font-style="italic" lengthAdjust="spacing" textLength="55" x="839.4" y="248.4639">DirectIF</text><line style="stroke:#181818;stroke-width:0.5;" x1="777" x2="927" y1="256.7656" y2="256.7656"/><line style="stroke:#181818;stroke-width:0.5;" x1="777" x2="927" y1="264.7656" y2="264.7656"/><ellipse cx="787" cy="278.4141" fill="#84BE84" rx="3" ry="3" style="stroke:#038048;stroke-width:1.0;"/><text fill="#000000" font-family="sans-serif" font-size="14" font-style="italic" lengthAdjust="spacing" textLength="125" x="796" y="281.7607">bool DirectRead()</text><ellipse cx="787" cy="294.7109" fill="#84BE84" rx="3" ry="3" style="stroke:#038048;stroke-width:1.0;"/><text fill="#000000" font-family="sans-serif" font-size="14" font-style="italic" lengthAdjust="spacing" textLength="126" x="796" y="298.0576">bool DirectWrite()</text></g><!--class BlockingIF--><g id="elem_BlockingIF"><rect codeLine="5" fill="#F1F1F1" height="88.8594" id="BlockingIF" rx="2.5" ry="2.5" style="stroke:#181818;stroke-width:0.5;" width="159" x="402.5" y="216.5"/><ellipse cx="437.75" cy="236.6328" fill="#B4A7E5" rx="11" ry="11" style="stroke:#181818;stroke-width:1.0;"/><path d="M438.7031,233.4141 L440.4219,233.4141 C440.8125,233.4141 441,233.3828 441.125,233.3047 C441.3906,233.1484 441.5313,232.8672 441.5313,232.5703 C441.5313,232.3047 441.4219,232.0391 441.1875,231.8672 C441.0156,231.7578 440.875,231.7266 440.4219,231.7266 L435.2813,231.7266 C434.8438,231.7266 434.7188,231.7422 434.5625,231.8359 C434.3125,231.9922 434.1563,232.2891 434.1563,232.5703 C434.1563,232.8516 434.2969,233.1016 434.5156,233.2734 C434.6719,233.3828 434.8594,233.4141 435.2813,233.4141 L437,233.4141 L437,239.9297 L435.2813,239.9297 C434.8438,239.9297 434.7188,239.9453 434.5625,240.0547 C434.3125,240.2109 434.1563,240.4922 434.1563,240.7891 C434.1563,241.0391 434.2969,241.3047 434.5156,241.4609 C434.6719,241.5859 434.875,241.6328 435.2813,241.6328 L440.4219,241.6328 C441.1719,241.6328 441.5313,241.3516 441.5313,240.7891 C441.5313,240.5078 441.4219,240.2578 441.1875,240.0859 C441.0156,239.9609 440.875,239.9297 440.4219,239.9297 L438.7031,239.9297 L438.7031,233.4141 Z " fill="#000000"/><text fill="#000000" font-family="sans-serif" font-size="12" font-style="italic" lengthAdjust="spacing" textLength="86" x="454.25" y="232.6387">&#171;sc_interface&#187;</text><text fill="#000000" font-family="sans-serif" font-size="14" font-style="italic" lengthAdjust="spacing" textLength="73" x="460.75" y="248.4639">BlockingIF</text><line style="stroke:#181818;stroke-width:0.5;" x1="403.5" x2="560.5" y1="256.7656" y2="256.7656"/><line style="stroke:#181818;stroke-width:0.5;" x1="403.5" x2="560.5" y1="264.7656" y2="264.7656"/><ellipse cx="413.5" cy="278.4141" fill="#84BE84" rx="3" ry="3" style="stroke:#038048;stroke-width:1.0;"/><text fill="#000000" font-family="sans-serif" font-size="14" font-style="italic" lengthAdjust="spacing" textLength="132" x="422.5" y="281.7607">Status BurstRead()</text><ellipse cx="413.5" cy="294.7109" fill="#84BE84" rx="3" ry="3" style="stroke:#038048;stroke-width:1.0;"/><text fill="#000000" font-family="sans-serif" font-size="14" font-style="italic" lengthAdjust="spacing" textLength="133" x="422.5" y="298.0576">Status BurstWrite()</text></g><!--class NonBlockingIF--><g id="elem_NonBlockingIF"><rect codeLine="9" fill="#F1F1F1" height="88.8594" id="NonBlockingIF" rx="2.5" ry="2.5" style="stroke:#181818;stroke-width:0.5;" width="133" x="601.5" y="216.5"/><ellipse cx="616.5" cy="236.6328" fill="#B4A7E5" rx="11" ry="11" style="stroke:#181818;stroke-width:1.0;"/><path d="M617.4531,233.4141 L619.1719,233.4141 C619.5625,233.4141 619.75,233.3828 619.875,233.3047 C620.1406,233.1484 620.2813,232.8672 620.2813,232.5703 C620.2813,232.3047 620.1719,232.0391 619.9375,231.8672 C619.7656,231.7578 619.625,231.7266 619.1719,231.7266 L614.0313,231.7266 C613.5938,231.7266 613.4688,231.7422 613.3125,231.8359 C613.0625,231.9922 612.9063,232.2891 612.9063,232.5703 C612.9063,232.8516 613.0469,233.1016 613.2656,233.2734 C613.4219,233.3828 613.6094,233.4141 614.0313,233.4141 L615.75,233.4141 L615.75,239.9297 L614.0313,239.9297 C613.5938,239.9297 613.4688,239.9453 613.3125,240.0547 C613.0625,240.2109 612.9063,240.4922 612.9063,240.7891 C612.9063,241.0391 613.0469,241.3047 613.2656,241.4609 C613.4219,241.5859 613.625,241.6328 614.0313,241.6328 L619.1719,241.6328 C619.9219,241.6328 620.2813,241.3516 620.2813,240.7891 C620.2813,240.5078 620.1719,240.2578 619.9375,240.0859 C619.7656,239.9609 619.625,239.9297 619.1719,239.9297 L617.4531,239.9297 L617.4531,233.4141 Z " fill="#000000"/><text fill="#000000" font-family="sans-serif" font-size="12" font-style="italic" lengthAdjust="spacing" textLength="86" x="638" y="232.6387">&#171;sc_interface&#187;</text><text fill="#000000" font-family="sans-serif" font-size="14" font-style="italic" lengthAdjust="spacing" textLength="101" x="630.5" y="248.4639">NonBlockingIF</text><line style="stroke:#181818;stroke-width:0.5;" x1="602.5" x2="733.5" y1="256.7656" y2="256.7656"/><line style="stroke:#181818;stroke-width:0.5;" x1="602.5" x2="733.5" y1="264.7656" y2="264.7656"/><ellipse cx="612.5" cy="278.4141" fill="#84BE84" rx="3" ry="3" style="stroke:#038048;stroke-width:1.0;"/><text fill="#000000" font-family="sans-serif" font-size="14" font-style="italic" lengthAdjust="spacing" textLength="81" x="621.5" y="281.7607">void Read()</text><ellipse cx="612.5" cy="294.7109" fill="#84BE84" rx="3" ry="3" style="stroke:#038048;stroke-width:1.0;"/><text fill="#000000" font-family="sans-serif" font-size="14" font-style="italic" lengthAdjust="spacing" textLength="82" x="621.5" y="298.0576">void Write()</text></g><!--class MasterDirect--><g id="elem_MasterDirect"><rect codeLine="13" fill="#F1F1F1" height="56.2656" id="MasterDirect" rx="2.5" ry="2.5" style="stroke:#181818;stroke-width:0.5;" width="126" x="789" y="35.5"/><ellipse cx="804" cy="55.6328" fill="#ADD1B2" rx="11" ry="11" style="stroke:#181818;stroke-width:1.0;"/><path d="M806.3438,51.3047 C805.4063,50.8672 804.8125,50.7266 803.9375,50.7266 C801.3125,50.7266 799.3125,52.8047 799.3125,55.5234 L799.3125,56.6484 C799.3125,59.2266 801.4219,61.1172 804.3125,61.1172 C805.5313,61.1172 806.6875,60.8203 807.4375,60.2734 C808.0156,59.8672 808.3438,59.4141 808.3438,59.0234 C808.3438,58.5703 807.9531,58.1797 807.4844,58.1797 C807.2656,58.1797 807.0625,58.2578 806.875,58.4453 C806.4219,58.9297 806.4219,58.9297 806.2344,59.0234 C805.8125,59.2891 805.125,59.4141 804.3594,59.4141 C802.3125,59.4141 801.0156,58.3203 801.0156,56.6172 L801.0156,55.5234 C801.0156,53.7422 802.2656,52.4297 804,52.4297 C804.5781,52.4297 805.1875,52.5859 805.6563,52.8359 C806.1406,53.1172 806.3125,53.3359 806.4063,53.7422 C806.4688,54.1484 806.5,54.2734 806.6406,54.3984 C806.7813,54.5391 807.0156,54.6484 807.2344,54.6484 C807.5,54.6484 807.7656,54.5078 807.9375,54.2891 C808.0469,54.1328 808.0781,53.9453 808.0781,53.5234 L808.0781,52.1016 C808.0781,51.6641 808.0625,51.5391 807.9688,51.3828 C807.8125,51.1172 807.5313,50.9766 807.2344,50.9766 C806.9375,50.9766 806.7344,51.0703 806.5156,51.3828 L806.3438,51.3047 Z " fill="#000000"/><text fill="#000000" font-family="sans-serif" font-size="12" font-style="italic" lengthAdjust="spacing" textLength="78" x="826" y="51.6387">&#171;sc_module&#187;</text><text fill="#000000" font-family="sans-serif" font-size="14" lengthAdjust="spacing" textLength="94" x="818" y="67.4639">MasterDirect</text><line style="stroke:#181818;stroke-width:0.5;" x1="790" x2="914" y1="75.7656" y2="75.7656"/><line style="stroke:#181818;stroke-width:0.5;" x1="790" x2="914" y1="83.7656" y2="83.7656"/></g><!--class MasterBlocking--><g id="elem_MasterBlocking"><rect codeLine="15" fill="#F1F1F1" height="56.2656" id="MasterBlocking" rx="2.5" ry="2.5" style="stroke:#181818;stroke-width:0.5;" width="143" x="404.5" y="35.5"/><ellipse cx="419.5" cy="55.6328" fill="#ADD1B2" rx="11" ry="11" style="stroke:#181818;stroke-width:1.0;"/><path d="M421.8438,51.3047 C420.9063,50.8672 420.3125,50.7266 419.4375,50.7266 C416.8125,50.7266 414.8125,52.8047 414.8125,55.5234 L414.8125,56.6484 C414.8125,59.2266 416.9219,61.1172 419.8125,61.1172 C421.0313,61.1172 422.1875,60.8203 422.9375,60.2734 C423.5156,59.8672 423.8438,59.4141 423.8438,59.0234 C423.8438,58.5703 423.4531,58.1797 422.9844,58.1797 C422.7656,58.1797 422.5625,58.2578 422.375,58.4453 C421.9219,58.9297 421.9219,58.9297 421.7344,59.0234 C421.3125,59.2891 420.625,59.4141 419.8594,59.4141 C417.8125,59.4141 416.5156,58.3203 416.5156,56.6172 L416.5156,55.5234 C416.5156,53.7422 417.7656,52.4297 419.5,52.4297 C420.0781,52.4297 420.6875,52.5859 421.1563,52.8359 C421.6406,53.1172 421.8125,53.3359 421.9063,53.7422 C421.9688,54.1484 422,54.2734 422.1406,54.3984 C422.2813,54.5391 422.5156,54.6484 422.7344,54.6484 C423,54.6484 423.2656,54.5078 423.4375,54.2891 C423.5469,54.1328 423.5781,53.9453 423.5781,53.5234 L423.5781,52.1016 C423.5781,51.6641 423.5625,51.5391 423.4688,51.3828 C423.3125,51.1172 423.0313,50.9766 422.7344,50.9766 C422.4375,50.9766 422.2344,51.0703 422.0156,51.3828 L421.8438,51.3047 Z " fill="#000000"/><text fill="#000000" font-family="sans-serif" font-size="12" font-style="italic" lengthAdjust="spacing" textLength="78" x="450" y="51.6387">&#171;sc_module&#187;</text><text fill="#000000" font-family="sans-serif" font-size="14" lengthAdjust="spacing" textLength="111" x="433.5" y="67.4639">MasterBlocking</text><line style="stroke:#181818;stroke-width:0.5;" x1="405.5" x2="546.5" y1="75.7656" y2="75.7656"/><line style="stroke:#181818;stroke-width:0.5;" x1="405.5" x2="546.5" y1="83.7656" y2="83.7656"/></g><!--class MasterNonBlocking--><g id="elem_MasterNonBlocking"><rect codeLine="17" fill="#F1F1F1" height="56.2656" id="MasterNonBlocking" rx="2.5" ry="2.5" style="stroke:#181818;stroke-width:0.5;" width="171" x="582.5" y="35.5"/><ellipse cx="597.5" cy="55.6328" fill="#ADD1B2" rx="11" ry="11" style="stroke:#181818;stroke-width:1.0;"/><path d="M599.8438,51.3047 C598.9063,50.8672 598.3125,50.7266 597.4375,50.7266 C594.8125,50.7266 592.8125,52.8047 592.8125,55.5234 L592.8125,56.6484 C592.8125,59.2266 594.9219,61.1172 597.8125,61.1172 C599.0313,61.1172 600.1875,60.8203 600.9375,60.2734 C601.5156,59.8672 601.8438,59.4141 601.8438,59.0234 C601.8438,58.5703 601.4531,58.1797 600.9844,58.1797 C600.7656,58.1797 600.5625,58.2578 600.375,58.4453 C599.9219,58.9297 599.9219,58.9297 599.7344,59.0234 C599.3125,59.2891 598.625,59.4141 597.8594,59.4141 C595.8125,59.4141 594.5156,58.3203 594.5156,56.6172 L594.5156,55.5234 C594.5156,53.7422 595.7656,52.4297 597.5,52.4297 C598.0781,52.4297 598.6875,52.5859 599.1563,52.8359 C599.6406,53.1172 599.8125,53.3359 599.9063,53.7422 C599.9688,54.1484 600,54.2734 600.1406,54.3984 C600.2813,54.5391 600.5156,54.6484 600.7344,54.6484 C601,54.6484 601.2656,54.5078 601.4375,54.2891 C601.5469,54.1328 601.5781,53.9453 601.5781,53.5234 L601.5781,52.1016 C601.5781,51.6641 601.5625,51.5391 601.4688,51.3828 C601.3125,51.1172 601.0313,50.9766 600.7344,50.9766 C600.4375,50.9766 600.2344,51.0703 600.0156,51.3828 L599.8438,51.3047 Z " fill="#000000"/><text fill="#000000" font-family="sans-serif" font-size="12" font-style="italic" lengthAdjust="spacing" textLength="78" x="642" y="51.6387">&#171;sc_module&#187;</text><text fill="#000000" font-family="sans-serif" font-size="14" lengthAdjust="spacing" textLength="139" x="611.5" y="67.4639">MasterNonBlocking</text><line style="stroke:#181818;stroke-width:0.5;" x1="583.5" x2="752.5" y1="75.7656" y2="75.7656"/><line style="stroke:#181818;stroke-width:0.5;" x1="583.5" x2="752.5" y1="83.7656" y2="83.7656"/></g><!--class SlaveIF--><g id="elem_SlaveIF"><rect codeLine="95" fill="#F1F1F1" height="121.4531" id="SlaveIF" rx="2.5" ry="2.5" style="stroke:#181818;stroke-width:0.5;" width="221" x="741.5" y="632"/><ellipse cx="806.75" cy="652.1328" fill="#B4A7E5" rx="11" ry="11" style="stroke:#181818;stroke-width:1.0;"/><path d="M807.7031,648.9141 L809.4219,648.9141 C809.8125,648.9141 810,648.8828 810.125,648.8047 C810.3906,648.6484 810.5313,648.3672 810.5313,648.0703 C810.5313,647.8047 810.4219,647.5391 810.1875,647.3672 C810.0156,647.2578 809.875,647.2266 809.4219,647.2266 L804.2813,647.2266 C803.8438,647.2266 803.7188,647.2422 803.5625,647.3359 C803.3125,647.4922 803.1563,647.7891 803.1563,648.0703 C803.1563,648.3516 803.2969,648.6016 803.5156,648.7734 C803.6719,648.8828 803.8594,648.9141 804.2813,648.9141 L806,648.9141 L806,655.4297 L804.2813,655.4297 C803.8438,655.4297 803.7188,655.4453 803.5625,655.5547 C803.3125,655.7109 803.1563,655.9922 803.1563,656.2891 C803.1563,656.5391 803.2969,656.8047 803.5156,656.9609 C803.6719,657.0859 803.875,657.1328 804.2813,657.1328 L809.4219,657.1328 C810.1719,657.1328 810.5313,656.8516 810.5313,656.2891 C810.5313,656.0078 810.4219,655.7578 810.1875,655.5859 C810.0156,655.4609 809.875,655.4297 809.4219,655.4297 L807.7031,655.4297 L807.7031,648.9141 Z " fill="#000000"/><text fill="#000000" font-family="sans-serif" font-size="12" font-style="italic" lengthAdjust="spacing" textLength="86" x="825.25" y="648.1387">&#171;sc_interface&#187;</text><text fill="#000000" font-family="sans-serif" font-size="14" font-style="italic" lengthAdjust="spacing" textLength="51" x="842.75" y="663.9639">SlaveIF</text><line style="stroke:#181818;stroke-width:0.5;" x1="742.5" x2="961.5" y1="672.2656" y2="672.2656"/><line style="stroke:#181818;stroke-width:0.5;" x1="742.5" x2="961.5" y1="680.2656" y2="680.2656"/><ellipse cx="752.5" cy="693.9141" fill="#84BE84" rx="3" ry="3" style="stroke:#038048;stroke-width:1.0;"/><text fill="#000000" font-family="sans-serif" font-size="14" font-style="italic" lengthAdjust="spacing" textLength="95" x="761.5" y="697.2607">Status Read()</text><ellipse cx="752.5" cy="710.2109" fill="#84BE84" rx="3" ry="3" style="stroke:#038048;stroke-width:1.0;"/><text fill="#000000" font-family="sans-serif" font-size="14" font-style="italic" lengthAdjust="spacing" textLength="96" x="761.5" y="713.5576">Status Write()</text><ellipse cx="752.5" cy="726.5078" fill="#84BE84" rx="3" ry="3" style="stroke:#038048;stroke-width:1.0;"/><text fill="#000000" font-family="sans-serif" font-size="14" font-style="italic" lengthAdjust="spacing" textLength="195" x="761.5" y="729.8545">unsigned GetStartAddress()</text><ellipse cx="752.5" cy="742.8047" fill="#84BE84" rx="3" ry="3" style="stroke:#038048;stroke-width:1.0;"/><text fill="#000000" font-family="sans-serif" font-size="14" font-style="italic" lengthAdjust="spacing" textLength="188" x="761.5" y="746.1514">unsigned GetEndAddress()</text></g><!--class FastMem--><g id="elem_FastMem"><rect codeLine="98" fill="#F1F1F1" height="105.1563" id="FastMem" rx="2.5" ry="2.5" style="stroke:#181818;stroke-width:0.5;" width="198" x="1019" y="866"/><ellipse cx="1058.75" cy="886.1328" fill="#ADD1B2" rx="11" ry="11" style="stroke:#181818;stroke-width:1.0;"/><path d="M1061.0938,881.8047 C1060.1563,881.3672 1059.5625,881.2266 1058.6875,881.2266 C1056.0625,881.2266 1054.0625,883.3047 1054.0625,886.0234 L1054.0625,887.1484 C1054.0625,889.7266 1056.1719,891.6172 1059.0625,891.6172 C1060.2813,891.6172 1061.4375,891.3203 1062.1875,890.7734 C1062.7656,890.3672 1063.0938,889.9141 1063.0938,889.5234 C1063.0938,889.0703 1062.7031,888.6797 1062.2344,888.6797 C1062.0156,888.6797 1061.8125,888.7578 1061.625,888.9453 C1061.1719,889.4297 1061.1719,889.4297 1060.9844,889.5234 C1060.5625,889.7891 1059.875,889.9141 1059.1094,889.9141 C1057.0625,889.9141 1055.7656,888.8203 1055.7656,887.1172 L1055.7656,886.0234 C1055.7656,884.2422 1057.0156,882.9297 1058.75,882.9297 C1059.3281,882.9297 1059.9375,883.0859 1060.4063,883.3359 C1060.8906,883.6172 1061.0625,883.8359 1061.1563,884.2422 C1061.2188,884.6484 1061.25,884.7734 1061.3906,884.8984 C1061.5313,885.0391 1061.7656,885.1484 1061.9844,885.1484 C1062.25,885.1484 1062.5156,885.0078 1062.6875,884.7891 C1062.7969,884.6328 1062.8281,884.4453 1062.8281,884.0234 L1062.8281,882.6016 C1062.8281,882.1641 1062.8125,882.0391 1062.7188,881.8828 C1062.5625,881.6172 1062.2813,881.4766 1061.9844,881.4766 C1061.6875,881.4766 1061.4844,881.5703 1061.2656,881.8828 L1061.0938,881.8047 Z " fill="#000000"/><text fill="#000000" font-family="sans-serif" font-size="12" font-style="italic" lengthAdjust="spacing" textLength="115" x="1076.25" y="882.1387">&#171;sc_prim_channel&#187;</text><text fill="#000000" font-family="sans-serif" font-size="14" lengthAdjust="spacing" textLength="65" x="1101.25" y="897.9639">FastMem</text><line style="stroke:#181818;stroke-width:0.5;" x1="1020" x2="1216" y1="906.2656" y2="906.2656"/><rect fill="none" height="6" style="stroke:#C82930;stroke-width:1.0;" width="6" x="1027" y="916.9141"/><text fill="#000000" font-family="sans-serif" font-size="14" lengthAdjust="spacing" textLength="75" x="1039" y="923.2607">int *mem_</text><rect fill="none" height="6" style="stroke:#C82930;stroke-width:1.0;" width="6" x="1027" y="933.2109"/><text fill="#000000" font-family="sans-serif" font-size="14" lengthAdjust="spacing" textLength="172" x="1039" y="939.5576">unsigned start_address_</text><rect fill="none" height="6" style="stroke:#C82930;stroke-width:1.0;" width="6" x="1027" y="949.5078"/><text fill="#000000" font-family="sans-serif" font-size="14" lengthAdjust="spacing" textLength="164" x="1039" y="955.8545">unsigend end_address_</text><line style="stroke:#181818;stroke-width:0.5;" x1="1020" x2="1216" y1="963.1563" y2="963.1563"/></g><!--class SlowMem--><g id="elem_SlowMem"><rect codeLine="99" fill="#F1F1F1" height="174.3438" id="SlowMem" rx="2.5" ry="2.5" style="stroke:#181818;stroke-width:0.5;" width="211" x="549.5" y="831.5"/><ellipse cx="612.25" cy="851.6328" fill="#ADD1B2" rx="11" ry="11" style="stroke:#181818;stroke-width:1.0;"/><path d="M614.5938,847.3047 C613.6563,846.8672 613.0625,846.7266 612.1875,846.7266 C609.5625,846.7266 607.5625,848.8047 607.5625,851.5234 L607.5625,852.6484 C607.5625,855.2266 609.6719,857.1172 612.5625,857.1172 C613.7813,857.1172 614.9375,856.8203 615.6875,856.2734 C616.2656,855.8672 616.5938,855.4141 616.5938,855.0234 C616.5938,854.5703 616.2031,854.1797 615.7344,854.1797 C615.5156,854.1797 615.3125,854.2578 615.125,854.4453 C614.6719,854.9297 614.6719,854.9297 614.4844,855.0234 C614.0625,855.2891 613.375,855.4141 612.6094,855.4141 C610.5625,855.4141 609.2656,854.3203 609.2656,852.6172 L609.2656,851.5234 C609.2656,849.7422 610.5156,848.4297 612.25,848.4297 C612.8281,848.4297 613.4375,848.5859 613.9063,848.8359 C614.3906,849.1172 614.5625,849.3359 614.6563,849.7422 C614.7188,850.1484 614.75,850.2734 614.8906,850.3984 C615.0313,850.5391 615.2656,850.6484 615.4844,850.6484 C615.75,850.6484 616.0156,850.5078 616.1875,850.2891 C616.2969,850.1328 616.3281,849.9453 616.3281,849.5234 L616.3281,848.1016 C616.3281,847.6641 616.3125,847.5391 616.2188,847.3828 C616.0625,847.1172 615.7813,846.9766 615.4844,846.9766 C615.1875,846.9766 614.9844,847.0703 614.7656,847.3828 L614.5938,847.3047 Z " fill="#000000"/><text fill="#000000" font-family="sans-serif" font-size="12" font-style="italic" lengthAdjust="spacing" textLength="81" x="630.75" y="847.6387">&#171;sc_channel&#187;</text><text fill="#000000" font-family="sans-serif" font-size="14" lengthAdjust="spacing" textLength="68" x="637.25" y="863.4639">SlowMem</text><line style="stroke:#181818;stroke-width:0.5;" x1="550.5" x2="759.5" y1="871.7656" y2="871.7656"/><rect fill="none" height="6" style="stroke:#C82930;stroke-width:1.0;" width="6" x="557.5" y="882.4141"/><text fill="#000000" font-family="sans-serif" font-size="14" lengthAdjust="spacing" textLength="75" x="569.5" y="888.7607">int *mem_</text><rect fill="none" height="6" style="stroke:#C82930;stroke-width:1.0;" width="6" x="557.5" y="898.7109"/><text fill="#000000" font-family="sans-serif" font-size="14" lengthAdjust="spacing" textLength="172" x="569.5" y="905.0576">unsigned start_address_</text><rect fill="none" height="6" style="stroke:#C82930;stroke-width:1.0;" width="6" x="557.5" y="915.0078"/><text fill="#000000" font-family="sans-serif" font-size="14" lengthAdjust="spacing" textLength="164" x="569.5" y="921.3545">unsigned end_address_</text><rect fill="none" height="6" style="stroke:#C82930;stroke-width:1.0;" width="6" x="557.5" y="931.3047"/><text fill="#000000" font-family="sans-serif" font-size="14" lengthAdjust="spacing" textLength="185" x="569.5" y="937.6514">unsigned response_cycle_</text><rect fill="none" height="6" style="stroke:#C82930;stroke-width:1.0;" width="6" x="557.5" y="947.6016"/><text fill="#000000" font-family="sans-serif" font-size="14" lengthAdjust="spacing" textLength="153" x="569.5" y="953.9482">unsigned wait_count_</text><line style="stroke:#181818;stroke-width:1.0;" x1="550.5" x2="759.5" y1="961.25" y2="961.25"/><ellipse cx="560.5" cy="995.1953" fill="#84BE84" rx="3" ry="3" style="stroke:#038048;stroke-width:1.0;"/><text fill="#000000" font-family="sans-serif" font-size="14" lengthAdjust="spacing" textLength="113" x="569.5" y="998.542">void WaitLoop()</text><line style="stroke:#181818;stroke-width:1.0;stroke-dasharray:1.0,2.0;" x1="550.5" x2="611" y1="977.3984" y2="977.3984"/><text fill="#000000" font-family="sans-serif" font-size="14" lengthAdjust="spacing" textLength="88" x="611" y="981.7451">SC_METHOD</text><line style="stroke:#181818;stroke-width:1.0;stroke-dasharray:1.0,2.0;" x1="699" x2="759.5" y1="977.3984" y2="977.3984"/></g><!--class UART--><g id="elem_UART"><rect codeLine="96" fill="#F1F1F1" height="210.9375" id="UART" rx="2.5" ry="2.5" style="stroke:#181818;stroke-width:0.5;" width="188" x="796" y="813"/><ellipse cx="847.25" cy="833.1328" fill="#ADD1B2" rx="11" ry="11" style="stroke:#181818;stroke-width:1.0;"/><path d="M849.5938,828.8047 C848.6563,828.3672 848.0625,828.2266 847.1875,828.2266 C844.5625,828.2266 842.5625,830.3047 842.5625,833.0234 L842.5625,834.1484 C842.5625,836.7266 844.6719,838.6172 847.5625,838.6172 C848.7813,838.6172 849.9375,838.3203 850.6875,837.7734 C851.2656,837.3672 851.5938,836.9141 851.5938,836.5234 C851.5938,836.0703 851.2031,835.6797 850.7344,835.6797 C850.5156,835.6797 850.3125,835.7578 850.125,835.9453 C849.6719,836.4297 849.6719,836.4297 849.4844,836.5234 C849.0625,836.7891 848.375,836.9141 847.6094,836.9141 C845.5625,836.9141 844.2656,835.8203 844.2656,834.1172 L844.2656,833.0234 C844.2656,831.2422 845.5156,829.9297 847.25,829.9297 C847.8281,829.9297 848.4375,830.0859 848.9063,830.3359 C849.3906,830.6172 849.5625,830.8359 849.6563,831.2422 C849.7188,831.6484 849.75,831.7734 849.8906,831.8984 C850.0313,832.0391 850.2656,832.1484 850.4844,832.1484 C850.75,832.1484 851.0156,832.0078 851.1875,831.7891 C851.2969,831.6328 851.3281,831.4453 851.3281,831.0234 L851.3281,829.6016 C851.3281,829.1641 851.3125,829.0391 851.2188,828.8828 C851.0625,828.6172 850.7813,828.4766 850.4844,828.4766 C850.1875,828.4766 849.9844,828.5703 849.7656,828.8828 L849.5938,828.8047 Z " fill="#000000"/><text fill="#000000" font-family="sans-serif" font-size="12" font-style="italic" lengthAdjust="spacing" textLength="81" x="865.75" y="829.1387">&#171;sc_channel&#187;</text><text fill="#000000" font-family="sans-serif" font-size="14" lengthAdjust="spacing" textLength="38" x="887.25" y="844.9639">UART</text><line style="stroke:#181818;stroke-width:0.5;" x1="797" x2="983" y1="853.2656" y2="853.2656"/><ellipse cx="807" cy="887.2109" fill="none" rx="3" ry="3" style="stroke:#038048;stroke-width:1.0;"/><text fill="#000000" font-family="sans-serif" font-size="14" lengthAdjust="spacing" textLength="147" x="816" y="890.5576">sc_in&lt;bool&gt; rx_valid</text><ellipse cx="807" cy="903.5078" fill="none" rx="3" ry="3" style="stroke:#038048;stroke-width:1.0;"/><text fill="#000000" font-family="sans-serif" font-size="14" lengthAdjust="spacing" textLength="146" x="816" y="906.8545">sc_in&lt;bool&gt; rx_data</text><line style="stroke:#181818;stroke-width:1.0;stroke-dasharray:1.0,2.0;" x1="797" x2="883" y1="869.4141" y2="869.4141"/><text fill="#000000" font-family="sans-serif" font-size="14" lengthAdjust="spacing" textLength="14" x="883" y="873.7607">rx</text><line style="stroke:#181818;stroke-width:1.0;stroke-dasharray:1.0,2.0;" x1="897" x2="983" y1="869.4141" y2="869.4141"/><ellipse cx="807" cy="940.1016" fill="none" rx="3" ry="3" style="stroke:#038048;stroke-width:1.0;"/><text fill="#000000" font-family="sans-serif" font-size="14" lengthAdjust="spacing" textLength="159" x="816" y="943.4482">sc_out&lt;bool&gt; tx_valid</text><ellipse cx="807" cy="956.3984" fill="none" rx="3" ry="3" style="stroke:#038048;stroke-width:1.0;"/><text fill="#000000" font-family="sans-serif" font-size="14" lengthAdjust="spacing" textLength="158" x="816" y="959.7451">sc_out&lt;bool&gt; tx_data</text><line style="stroke:#181818;stroke-width:1.0;stroke-dasharray:1.0,2.0;" x1="797" x2="882.5" y1="922.3047" y2="922.3047"/><text fill="#000000" font-family="sans-serif" font-size="14" lengthAdjust="spacing" textLength="15" x="882.5" y="926.6514">tx</text><line style="stroke:#181818;stroke-width:1.0;stroke-dasharray:1.0,2.0;" x1="897.5" x2="983" y1="922.3047" y2="922.3047"/><line style="stroke:#181818;stroke-width:1.0;stroke-dasharray:1.0,2.0;" x1="797" x2="983" y1="967.0469" y2="967.0469"/><rect fill="none" height="6" style="stroke:#C82930;stroke-width:1.0;" width="6" x="804" y="977.6953"/><text fill="#000000" font-family="sans-serif" font-size="14" lengthAdjust="spacing" textLength="157" x="816" y="984.042">UARTLogic *uart_logic</text><rect fill="none" height="6" style="stroke:#C82930;stroke-width:1.0;" width="6" x="804" y="993.9922"/><text fill="#000000" font-family="sans-serif" font-size="14" lengthAdjust="spacing" textLength="161" x="816" y="1000.3389">sc_fifo&lt;int8_t&gt; *rxfifo</text><rect fill="none" height="6" style="stroke:#C82930;stroke-width:1.0;" width="6" x="804" y="1010.2891"/><text fill="#000000" font-family="sans-serif" font-size="14" lengthAdjust="spacing" textLength="162" x="816" y="1016.6357">sc_fifo&lt;int8_t&gt; *txfifo</text></g><!--class UARTLogic--><g id="elem_UARTLogic"><rect codeLine="52" fill="#F1F1F1" height="345.3125" id="UARTLogic" rx="2.5" ry="2.5" style="stroke:#181818;stroke-width:0.5;" width="392" x="694" y="1084"/><ellipse cx="847.25" cy="1104.1328" fill="#ADD1B2" rx="11" ry="11" style="stroke:#181818;stroke-width:1.0;"/><path d="M849.5938,1099.8047 C848.6563,1099.3672 848.0625,1099.2266 847.1875,1099.2266 C844.5625,1099.2266 842.5625,1101.3047 842.5625,1104.0234 L842.5625,1105.1484 C842.5625,1107.7266 844.6719,1109.6172 847.5625,1109.6172 C848.7813,1109.6172 849.9375,1109.3203 850.6875,1108.7734 C851.2656,1108.3672 851.5938,1107.9141 851.5938,1107.5234 C851.5938,1107.0703 851.2031,1106.6797 850.7344,1106.6797 C850.5156,1106.6797 850.3125,1106.7578 850.125,1106.9453 C849.6719,1107.4297 849.6719,1107.4297 849.4844,1107.5234 C849.0625,1107.7891 848.375,1107.9141 847.6094,1107.9141 C845.5625,1107.9141 844.2656,1106.8203 844.2656,1105.1172 L844.2656,1104.0234 C844.2656,1102.2422 845.5156,1100.9297 847.25,1100.9297 C847.8281,1100.9297 848.4375,1101.0859 848.9063,1101.3359 C849.3906,1101.6172 849.5625,1101.8359 849.6563,1102.2422 C849.7188,1102.6484 849.75,1102.7734 849.8906,1102.8984 C850.0313,1103.0391 850.2656,1103.1484 850.4844,1103.1484 C850.75,1103.1484 851.0156,1103.0078 851.1875,1102.7891 C851.2969,1102.6328 851.3281,1102.4453 851.3281,1102.0234 L851.3281,1100.6016 C851.3281,1100.1641 851.3125,1100.0391 851.2188,1099.8828 C851.0625,1099.6172 850.7813,1099.4766 850.4844,1099.4766 C850.1875,1099.4766 849.9844,1099.5703 849.7656,1099.8828 L849.5938,1099.8047 Z " fill="#000000"/><text fill="#000000" font-family="sans-serif" font-size="12" font-style="italic" lengthAdjust="spacing" textLength="81" x="865.75" y="1100.1387">&#171;sc_channel&#187;</text><text fill="#000000" font-family="sans-serif" font-size="14" lengthAdjust="spacing" textLength="76" x="868.25" y="1115.9639">UARTLogic</text><line style="stroke:#181818;stroke-width:0.5;" x1="695" x2="1085" y1="1124.2656" y2="1124.2656"/><ellipse cx="705" cy="1158.2109" fill="none" rx="3" ry="3" style="stroke:#038048;stroke-width:1.0;"/><text fill="#000000" font-family="sans-serif" font-size="14" lengthAdjust="spacing" textLength="147" x="714" y="1161.5576">sc_in&lt;bool&gt; rx_valid</text><ellipse cx="705" cy="1174.5078" fill="none" rx="3" ry="3" style="stroke:#038048;stroke-width:1.0;"/><text fill="#000000" font-family="sans-serif" font-size="14" lengthAdjust="spacing" textLength="146" x="714" y="1177.8545">sc_in&lt;bool&gt; rx_data</text><ellipse cx="705" cy="1190.8047" fill="none" rx="3" ry="3" style="stroke:#038048;stroke-width:1.0;"/><text fill="#000000" font-family="sans-serif" font-size="14" lengthAdjust="spacing" textLength="349" x="714" y="1194.1514">sc_port&lt;sc_fifo_in_if&lt;int8_t&gt; &gt; rxfifo_read_port</text><ellipse cx="705" cy="1207.1016" fill="none" rx="3" ry="3" style="stroke:#038048;stroke-width:1.0;"/><text fill="#000000" font-family="sans-serif" font-size="14" lengthAdjust="spacing" textLength="365" x="714" y="1210.4482">sc_port&lt;sc_fifo_out_if&lt;int8_t&gt; &gt; rxfifo_write_port</text><line style="stroke:#181818;stroke-width:1.0;stroke-dasharray:1.0,2.0;" x1="695" x2="883" y1="1140.4141" y2="1140.4141"/><text fill="#000000" font-family="sans-serif" font-size="14" lengthAdjust="spacing" textLength="14" x="883" y="1144.7607">rx</text><line style="stroke:#181818;stroke-width:1.0;stroke-dasharray:1.0,2.0;" x1="897" x2="1085" y1="1140.4141" y2="1140.4141"/><ellipse cx="705" cy="1243.6953" fill="none" rx="3" ry="3" style="stroke:#038048;stroke-width:1.0;"/><text fill="#000000" font-family="sans-serif" font-size="14" lengthAdjust="spacing" textLength="159" x="714" y="1247.042">sc_out&lt;bool&gt; tx_valid</text><ellipse cx="705" cy="1259.9922" fill="none" rx="3" ry="3" style="stroke:#038048;stroke-width:1.0;"/><text fill="#000000" font-family="sans-serif" font-size="14" lengthAdjust="spacing" textLength="158" x="714" y="1263.3389">sc_out&lt;bool&gt; tx_data</text><ellipse cx="705" cy="1276.2891" fill="none" rx="3" ry="3" style="stroke:#038048;stroke-width:1.0;"/><text fill="#000000" font-family="sans-serif" font-size="14" lengthAdjust="spacing" textLength="350" x="714" y="1279.6357">sc_port&lt;sc_fifo_in_if&lt;int8_t&gt; &gt; txfifo_read_port</text><ellipse cx="705" cy="1292.5859" fill="none" rx="3" ry="3" style="stroke:#038048;stroke-width:1.0;"/><text fill="#000000" font-family="sans-serif" font-size="14" lengthAdjust="spacing" textLength="366" x="714" y="1295.9326">sc_port&lt;sc_fifo_out_if&lt;int8_t&gt; &gt; txfifo_write_port</text><rect fill="none" height="6" style="stroke:#C82930;stroke-width:1.0;" width="6" x="702" y="1305.8828"/><text fill="#000000" font-family="sans-serif" font-size="14" lengthAdjust="spacing" textLength="172" x="714" y="1312.2295">unsigned start_address_</text><rect fill="none" height="6" style="stroke:#C82930;stroke-width:1.0;" width="6" x="702" y="1322.1797"/><text fill="#000000" font-family="sans-serif" font-size="14" lengthAdjust="spacing" textLength="164" x="714" y="1328.5264">unsigned end_address_</text><rect fill="none" height="6" style="stroke:#C82930;stroke-width:1.0;" width="6" x="702" y="1338.4766"/><text fill="#000000" font-family="sans-serif" font-size="14" lengthAdjust="spacing" textLength="97" x="714" y="1344.8232">int8_t status_</text><rect fill="none" height="6" style="stroke:#C82930;stroke-width:1.0;" width="6" x="702" y="1354.7734"/><text fill="#000000" font-family="sans-serif" font-size="14" lengthAdjust="spacing" textLength="121" x="714" y="1361.1201">int8_t configure_</text><line style="stroke:#181818;stroke-width:1.0;stroke-dasharray:1.0,2.0;" x1="695" x2="882.5" y1="1225.8984" y2="1225.8984"/><text fill="#000000" font-family="sans-serif" font-size="14" lengthAdjust="spacing" textLength="15" x="882.5" y="1230.2451">tx</text><line style="stroke:#181818;stroke-width:1.0;stroke-dasharray:1.0,2.0;" x1="897.5" x2="1085" y1="1225.8984" y2="1225.8984"/><line style="stroke:#181818;stroke-width:1.0;" x1="695" x2="1085" y1="1368.4219" y2="1368.4219"/><ellipse cx="705" cy="1402.3672" fill="#84BE84" rx="3" ry="3" style="stroke:#038048;stroke-width:1.0;"/><text fill="#000000" font-family="sans-serif" font-size="14" lengthAdjust="spacing" textLength="151" x="714" y="1405.7139">void ReceiveThread()</text><ellipse cx="705" cy="1418.6641" fill="#84BE84" rx="3" ry="3" style="stroke:#038048;stroke-width:1.0;"/><text fill="#000000" font-family="sans-serif" font-size="14" lengthAdjust="spacing" textLength="158" x="714" y="1422.0107">void TransmitThread()</text><line style="stroke:#181818;stroke-width:1.0;stroke-dasharray:1.0,2.0;" x1="695" x2="847.5" y1="1384.5703" y2="1384.5703"/><text fill="#000000" font-family="sans-serif" font-size="14" lengthAdjust="spacing" textLength="85" x="847.5" y="1388.917">SC_THREAD</text><line style="stroke:#181818;stroke-width:1.0;stroke-dasharray:1.0,2.0;" x1="932.5" x2="1085" y1="1384.5703" y2="1384.5703"/></g><!--class ArbiterIF--><g id="elem_ArbiterIF"><rect codeLine="72" fill="#F1F1F1" height="72.5625" id="ArbiterIF" rx="2.5" ry="2.5" style="stroke:#181818;stroke-width:0.5;" width="301" x="330.5" y="656"/><ellipse cx="435.75" cy="676.1328" fill="#B4A7E5" rx="11" ry="11" style="stroke:#181818;stroke-width:1.0;"/><path d="M436.7031,672.9141 L438.4219,672.9141 C438.8125,672.9141 439,672.8828 439.125,672.8047 C439.3906,672.6484 439.5313,672.3672 439.5313,672.0703 C439.5313,671.8047 439.4219,671.5391 439.1875,671.3672 C439.0156,671.2578 438.875,671.2266 438.4219,671.2266 L433.2813,671.2266 C432.8438,671.2266 432.7188,671.2422 432.5625,671.3359 C432.3125,671.4922 432.1563,671.7891 432.1563,672.0703 C432.1563,672.3516 432.2969,672.6016 432.5156,672.7734 C432.6719,672.8828 432.8594,672.9141 433.2813,672.9141 L435,672.9141 L435,679.4297 L433.2813,679.4297 C432.8438,679.4297 432.7188,679.4453 432.5625,679.5547 C432.3125,679.7109 432.1563,679.9922 432.1563,680.2891 C432.1563,680.5391 432.2969,680.8047 432.5156,680.9609 C432.6719,681.0859 432.875,681.1328 433.2813,681.1328 L438.4219,681.1328 C439.1719,681.1328 439.5313,680.8516 439.5313,680.2891 C439.5313,680.0078 439.4219,679.7578 439.1875,679.5859 C439.0156,679.4609 438.875,679.4297 438.4219,679.4297 L436.7031,679.4297 L436.7031,672.9141 Z " fill="#000000"/><text fill="#000000" font-family="sans-serif" font-size="12" font-style="italic" lengthAdjust="spacing" textLength="86" x="454.25" y="672.1387">&#171;sc_interface&#187;</text><text fill="#000000" font-family="sans-serif" font-size="14" font-style="italic" lengthAdjust="spacing" textLength="61" x="466.75" y="687.9639">ArbiterIF</text><line style="stroke:#181818;stroke-width:0.5;" x1="331.5" x2="630.5" y1="696.2656" y2="696.2656"/><line style="stroke:#181818;stroke-width:0.5;" x1="331.5" x2="630.5" y1="704.2656" y2="704.2656"/><ellipse cx="341.5" cy="717.9141" fill="#84BE84" rx="3" ry="3" style="stroke:#038048;stroke-width:1.0;"/><text fill="#000000" font-family="sans-serif" font-size="14" font-style="italic" lengthAdjust="spacing" textLength="275" x="350.5" y="721.2607">Request *Arbitrate(Request requests[])</text></g><!--class Arbiter--><g id="elem_Arbiter"><rect codeLine="92" fill="#F1F1F1" height="56.2656" id="Arbiter" rx="2.5" ry="2.5" style="stroke:#181818;stroke-width:0.5;" width="143" x="371.5" y="890.5"/><ellipse cx="386.5" cy="910.6328" fill="#ADD1B2" rx="11" ry="11" style="stroke:#181818;stroke-width:1.0;"/><path d="M388.8438,906.3047 C387.9063,905.8672 387.3125,905.7266 386.4375,905.7266 C383.8125,905.7266 381.8125,907.8047 381.8125,910.5234 L381.8125,911.6484 C381.8125,914.2266 383.9219,916.1172 386.8125,916.1172 C388.0313,916.1172 389.1875,915.8203 389.9375,915.2734 C390.5156,914.8672 390.8438,914.4141 390.8438,914.0234 C390.8438,913.5703 390.4531,913.1797 389.9844,913.1797 C389.7656,913.1797 389.5625,913.2578 389.375,913.4453 C388.9219,913.9297 388.9219,913.9297 388.7344,914.0234 C388.3125,914.2891 387.625,914.4141 386.8594,914.4141 C384.8125,914.4141 383.5156,913.3203 383.5156,911.6172 L383.5156,910.5234 C383.5156,908.7422 384.7656,907.4297 386.5,907.4297 C387.0781,907.4297 387.6875,907.5859 388.1563,907.8359 C388.6406,908.1172 388.8125,908.3359 388.9063,908.7422 C388.9688,909.1484 389,909.2734 389.1406,909.3984 C389.2813,909.5391 389.5156,909.6484 389.7344,909.6484 C390,909.6484 390.2656,909.5078 390.4375,909.2891 C390.5469,909.1328 390.5781,908.9453 390.5781,908.5234 L390.5781,907.1016 C390.5781,906.6641 390.5625,906.5391 390.4688,906.3828 C390.3125,906.1172 390.0313,905.9766 389.7344,905.9766 C389.4375,905.9766 389.2344,906.0703 389.0156,906.3828 L388.8438,906.3047 Z " fill="#000000"/><text fill="#000000" font-family="sans-serif" font-size="12" font-style="italic" lengthAdjust="spacing" textLength="115" x="398.5" y="906.6387">&#171;sc_prim_channel&#187;</text><text fill="#000000" font-family="sans-serif" font-size="14" lengthAdjust="spacing" textLength="52" x="430" y="922.4639">Arbiter</text><line style="stroke:#181818;stroke-width:0.5;" x1="372.5" x2="513.5" y1="930.7656" y2="930.7656"/><line style="stroke:#181818;stroke-width:0.5;" x1="372.5" x2="513.5" y1="938.7656" y2="938.7656"/></g><!--class Bus--><g id="elem_Bus"><rect codeLine="91" fill="#F1F1F1" height="170.3438" id="Bus" rx="2.5" ry="2.5" style="stroke:#181818;stroke-width:0.5;" width="262" x="537" y="402"/><ellipse cx="625.25" cy="422.1328" fill="#ADD1B2" rx="11" ry="11" style="stroke:#181818;stroke-width:1.0;"/><path d="M627.5938,417.8047 C626.6563,417.3672 626.0625,417.2266 625.1875,417.2266 C622.5625,417.2266 620.5625,419.3047 620.5625,422.0234 L620.5625,423.1484 C620.5625,425.7266 622.6719,427.6172 625.5625,427.6172 C626.7813,427.6172 627.9375,427.3203 628.6875,426.7734 C629.2656,426.3672 629.5938,425.9141 629.5938,425.5234 C629.5938,425.0703 629.2031,424.6797 628.7344,424.6797 C628.5156,424.6797 628.3125,424.7578 628.125,424.9453 C627.6719,425.4297 627.6719,425.4297 627.4844,425.5234 C627.0625,425.7891 626.375,425.9141 625.6094,425.9141 C623.5625,425.9141 622.2656,424.8203 622.2656,423.1172 L622.2656,422.0234 C622.2656,420.2422 623.5156,418.9297 625.25,418.9297 C625.8281,418.9297 626.4375,419.0859 626.9063,419.3359 C627.3906,419.6172 627.5625,419.8359 627.6563,420.2422 C627.7188,420.6484 627.75,420.7734 627.8906,420.8984 C628.0313,421.0391 628.2656,421.1484 628.4844,421.1484 C628.75,421.1484 629.0156,421.0078 629.1875,420.7891 C629.2969,420.6328 629.3281,420.4453 629.3281,420.0234 L629.3281,418.6016 C629.3281,418.1641 629.3125,418.0391 629.2188,417.8828 C629.0625,417.6172 628.7813,417.4766 628.4844,417.4766 C628.1875,417.4766 627.9844,417.5703 627.7656,417.8828 L627.5938,417.8047 Z " fill="#000000"/><text fill="#000000" font-family="sans-serif" font-size="12" font-style="italic" lengthAdjust="spacing" textLength="81" x="643.75" y="418.1387">&#171;sc_channel&#187;</text><text fill="#000000" font-family="sans-serif" font-size="14" lengthAdjust="spacing" textLength="25" x="671.75" y="433.9639">Bus</text><line style="stroke:#181818;stroke-width:0.5;" x1="538" x2="798" y1="442.2656" y2="442.2656"/><rect fill="none" height="6" style="stroke:#C82930;stroke-width:1.0;" width="6" x="545" y="452.9141"/><text fill="#000000" font-family="sans-serif" font-size="14" lengthAdjust="spacing" textLength="236" x="557" y="459.2607">Request requests_[kPriorityNum]</text><rect fill="none" height="6" style="stroke:#C82930;stroke-width:1.0;" width="6" x="545" y="469.2109"/><text fill="#000000" font-family="sans-serif" font-size="14" lengthAdjust="spacing" textLength="192" x="557" y="475.5576">Request *current_request_</text><line style="stroke:#181818;stroke-width:0.5;" x1="538" x2="798" y1="482.8594" y2="482.8594"/><rect fill="#F24D5C" height="6" style="stroke:#C82930;stroke-width:1.0;" width="6" x="545" y="493.5078"/><text fill="#000000" font-family="sans-serif" font-size="14" lengthAdjust="spacing" textLength="136" x="557" y="499.8545">SlaveIF *GetSlave()</text><rect fill="#F24D5C" height="6" style="stroke:#C82930;stroke-width:1.0;" width="6" x="545" y="509.8047"/><text fill="#000000" font-family="sans-serif" font-size="14" lengthAdjust="spacing" textLength="200" x="557" y="516.1514">Request *GetNextRequest()</text><rect fill="#F24D5C" height="6" style="stroke:#C82930;stroke-width:1.0;" width="6" x="545" y="526.1016"/><text fill="#000000" font-family="sans-serif" font-size="14" lengthAdjust="spacing" textLength="152" x="557" y="532.4482">void HandleRequest()</text><rect fill="#F24D5C" height="6" style="stroke:#C82930;stroke-width:1.0;" width="6" x="545" y="542.3984"/><text fill="#000000" font-family="sans-serif" font-size="14" lengthAdjust="spacing" textLength="171" x="557" y="548.7451">Status BurstOperation()</text><rect fill="#F24D5C" height="6" style="stroke:#C82930;stroke-width:1.0;" width="6" x="545" y="558.6953"/><text fill="#000000" font-family="sans-serif" font-size="14" lengthAdjust="spacing" textLength="207" x="557" y="565.042">void NonBlockingOperation()</text></g><!--class Status--><g id="elem_Status"><rect codeLine="100" fill="#F1F1F1" height="113.1875" id="Status" rx="2.5" ry="2.5" style="stroke:#181818;stroke-width:0.5;" width="160" x="7" y="7"/><ellipse cx="59.75" cy="23" fill="#EB937F" rx="11" ry="11" style="stroke:#181818;stroke-width:1.0;"/><path d="M58.5469,23.875 L60,23.875 L60,23.9844 C60,24.3906 60.0313,24.5469 60.1094,24.7031 C60.2656,24.9531 60.5469,25.1094 60.8438,25.1094 C61.0938,25.1094 61.3594,24.9688 61.5156,24.75 C61.6406,24.5938 61.6719,24.4375 61.6719,23.9844 L61.6719,22.0625 C61.6719,21.9063 61.6719,21.8594 61.6563,21.7031 C61.5938,21.2344 61.2813,20.9219 60.8281,20.9219 C60.5781,20.9219 60.3125,21.0625 60.1406,21.2813 C60.0313,21.4531 60,21.6094 60,22.0625 L60,22.1875 L58.5469,22.1875 L58.5469,19.7813 L62.5313,19.7813 L62.5313,20.6406 C62.5313,21.0469 62.5625,21.2188 62.6406,21.375 C62.8125,21.625 63.0938,21.7813 63.375,21.7813 C63.6406,21.7813 63.9063,21.6406 64.0781,21.4219 C64.1875,21.25 64.2188,21.1094 64.2188,20.6406 L64.2188,18.0938 L56.5938,18.0938 C56.1563,18.0938 56.0313,18.1094 55.875,18.2031 C55.625,18.3594 55.4688,18.6563 55.4688,18.9375 C55.4688,19.2188 55.6094,19.4688 55.8281,19.6406 C55.9844,19.75 56.1719,19.7813 56.5938,19.7813 L56.8438,19.7813 L56.8438,26.2969 L56.5938,26.2969 C56.1875,26.2969 56.0313,26.3125 55.875,26.4219 C55.625,26.5938 55.4688,26.8594 55.4688,27.1563 C55.4688,27.4219 55.6094,27.6719 55.8281,27.8281 C55.9688,27.9531 56.2031,28 56.5938,28 L64.5938,28 L64.5938,25.4219 C64.5938,24.9844 64.5625,24.8438 64.4844,24.6875 C64.3125,24.4375 64.0313,24.2813 63.75,24.2813 C63.4844,24.2813 63.2188,24.3906 63.0469,24.6406 C62.9375,24.7969 62.9063,24.9375 62.9063,25.4219 L62.9063,26.2969 L58.5469,26.2969 L58.5469,23.875 Z " fill="#000000"/><text fill="#000000" font-family="sans-serif" font-size="14" lengthAdjust="spacing" textLength="46" x="80.25" y="27.8467">Status</text><line style="stroke:#181818;stroke-width:0.5;" x1="8" x2="166" y1="39" y2="39"/><text fill="#000000" font-family="sans-serif" font-size="14" lengthAdjust="spacing" textLength="103" x="13" y="55.9951">TRANSFER_OK</text><text fill="#000000" font-family="sans-serif" font-size="14" lengthAdjust="spacing" textLength="148" x="13" y="72.292">TRANSFER_REQUEST</text><text fill="#000000" font-family="sans-serif" font-size="14" lengthAdjust="spacing" textLength="119" x="13" y="88.5889">TRANSFER_WAIT</text><text fill="#000000" font-family="sans-serif" font-size="14" lengthAdjust="spacing" textLength="132" x="13" y="104.8857">TRANSFER_ERROR</text><line style="stroke:#181818;stroke-width:0.5;" x1="8" x2="166" y1="112.1875" y2="112.1875"/></g><!--class Operation--><g id="elem_Operation"><rect codeLine="106" fill="#F1F1F1" height="80.5938" id="Operation" rx="2.5" ry="2.5" style="stroke:#181818;stroke-width:0.5;" width="105" x="202.5" y="23"/><ellipse cx="217.5" cy="39" fill="#EB937F" rx="11" ry="11" style="stroke:#181818;stroke-width:1.0;"/><path d="M216.2969,39.875 L217.75,39.875 L217.75,39.9844 C217.75,40.3906 217.7813,40.5469 217.8594,40.7031 C218.0156,40.9531 218.2969,41.1094 218.5938,41.1094 C218.8438,41.1094 219.1094,40.9688 219.2656,40.75 C219.3906,40.5938 219.4219,40.4375 219.4219,39.9844 L219.4219,38.0625 C219.4219,37.9063 219.4219,37.8594 219.4063,37.7031 C219.3438,37.2344 219.0313,36.9219 218.5781,36.9219 C218.3281,36.9219 218.0625,37.0625 217.8906,37.2813 C217.7813,37.4531 217.75,37.6094 217.75,38.0625 L217.75,38.1875 L216.2969,38.1875 L216.2969,35.7813 L220.2813,35.7813 L220.2813,36.6406 C220.2813,37.0469 220.3125,37.2188 220.3906,37.375 C220.5625,37.625 220.8438,37.7813 221.125,37.7813 C221.3906,37.7813 221.6563,37.6406 221.8281,37.4219 C221.9375,37.25 221.9688,37.1094 221.9688,36.6406 L221.9688,34.0938 L214.3438,34.0938 C213.9063,34.0938 213.7813,34.1094 213.625,34.2031 C213.375,34.3594 213.2188,34.6563 213.2188,34.9375 C213.2188,35.2188 213.3594,35.4688 213.5781,35.6406 C213.7344,35.75 213.9219,35.7813 214.3438,35.7813 L214.5938,35.7813 L214.5938,42.2969 L214.3438,42.2969 C213.9375,42.2969 213.7813,42.3125 213.625,42.4219 C213.375,42.5938 213.2188,42.8594 213.2188,43.1563 C213.2188,43.4219 213.3594,43.6719 213.5781,43.8281 C213.7188,43.9531 213.9531,44 214.3438,44 L222.3438,44 L222.3438,41.4219 C222.3438,40.9844 222.3125,40.8438 222.2344,40.6875 C222.0625,40.4375 221.7813,40.2813 221.5,40.2813 C221.2344,40.2813 220.9688,40.3906 220.7969,40.6406 C220.6875,40.7969 220.6563,40.9375 220.6563,41.4219 L220.6563,42.2969 L216.2969,42.2969 L216.2969,39.875 Z " fill="#000000"/><text fill="#000000" font-family="sans-serif" font-size="14" lengthAdjust="spacing" textLength="73" x="231.5" y="43.8467">Operation</text><line style="stroke:#181818;stroke-width:0.5;" x1="203.5" x2="306.5" y1="55" y2="55"/><text fill="#000000" font-family="sans-serif" font-size="14" lengthAdjust="spacing" textLength="40" x="208.5" y="71.9951">READ</text><text fill="#000000" font-family="sans-serif" font-size="14" lengthAdjust="spacing" textLength="46" x="208.5" y="88.292">WRITE</text><line style="stroke:#181818;stroke-width:0.5;" x1="203.5" x2="306.5" y1="95.5938" y2="95.5938"/></g><!--class Lock--><g id="elem_Lock"><rect codeLine="110" fill="#F1F1F1" height="96.8906" id="Lock" rx="2.5" ry="2.5" style="stroke:#181818;stroke-width:0.5;" width="128" x="23" y="212.5"/><ellipse cx="65.9" cy="228.5" fill="#EB937F" rx="11" ry="11" style="stroke:#181818;stroke-width:1.0;"/><path d="M64.6969,229.375 L66.15,229.375 L66.15,229.4844 C66.15,229.8906 66.1813,230.0469 66.2594,230.2031 C66.4156,230.4531 66.6969,230.6094 66.9938,230.6094 C67.2438,230.6094 67.5094,230.4688 67.6656,230.25 C67.7906,230.0938 67.8219,229.9375 67.8219,229.4844 L67.8219,227.5625 C67.8219,227.4063 67.8219,227.3594 67.8063,227.2031 C67.7438,226.7344 67.4313,226.4219 66.9781,226.4219 C66.7281,226.4219 66.4625,226.5625 66.2906,226.7813 C66.1813,226.9531 66.15,227.1094 66.15,227.5625 L66.15,227.6875 L64.6969,227.6875 L64.6969,225.2813 L68.6813,225.2813 L68.6813,226.1406 C68.6813,226.5469 68.7125,226.7188 68.7906,226.875 C68.9625,227.125 69.2438,227.2813 69.525,227.2813 C69.7906,227.2813 70.0563,227.1406 70.2281,226.9219 C70.3375,226.75 70.3688,226.6094 70.3688,226.1406 L70.3688,223.5938 L62.7438,223.5938 C62.3063,223.5938 62.1813,223.6094 62.025,223.7031 C61.775,223.8594 61.6188,224.1563 61.6188,224.4375 C61.6188,224.7188 61.7594,224.9688 61.9781,225.1406 C62.1344,225.25 62.3219,225.2813 62.7438,225.2813 L62.9938,225.2813 L62.9938,231.7969 L62.7438,231.7969 C62.3375,231.7969 62.1813,231.8125 62.025,231.9219 C61.775,232.0938 61.6188,232.3594 61.6188,232.6563 C61.6188,232.9219 61.7594,233.1719 61.9781,233.3281 C62.1188,233.4531 62.3531,233.5 62.7438,233.5 L70.7438,233.5 L70.7438,230.9219 C70.7438,230.4844 70.7125,230.3438 70.6344,230.1875 C70.4625,229.9375 70.1813,229.7813 69.9,229.7813 C69.6344,229.7813 69.3688,229.8906 69.1969,230.1406 C69.0875,230.2969 69.0563,230.4375 69.0563,230.9219 L69.0563,231.7969 L64.6969,231.7969 L64.6969,229.375 Z " fill="#000000"/><text fill="#000000" font-family="sans-serif" font-size="14" lengthAdjust="spacing" textLength="34" x="86.1" y="233.3467">Lock</text><line style="stroke:#181818;stroke-width:0.5;" x1="24" x2="150" y1="244.5" y2="244.5"/><text fill="#000000" font-family="sans-serif" font-size="14" lengthAdjust="spacing" textLength="67" x="29" y="261.4951">LOCK_NO</text><text fill="#000000" font-family="sans-serif" font-size="14" lengthAdjust="spacing" textLength="73" x="29" y="277.792">LOCK_SET</text><text fill="#000000" font-family="sans-serif" font-size="14" lengthAdjust="spacing" textLength="116" x="29" y="294.0889">LOCK_GRANTED</text><line style="stroke:#181818;stroke-width:0.5;" x1="24" x2="150" y1="301.3906" y2="301.3906"/></g><!--class Request--><g id="elem_Request"><rect codeLine="115" fill="#F1F1F1" height="162.0781" id="Request" rx="2.5" ry="2.5" style="stroke:#181818;stroke-width:0.5;" width="181" x="186.5" y="180"/><ellipse cx="243.25" cy="196" fill="#F1F1F1" rx="11" ry="11" style="stroke:#181818;stroke-width:1.0;"/><path d="M247.0313,191.9688 C247.0313,191.5313 247.0156,191.3906 246.9219,191.2344 C246.7813,191 246.5,190.8438 246.2031,190.8438 C245.8594,190.8438 245.7188,190.9844 245.5469,191.4063 C244.9531,191.0313 244.2031,190.8438 243.3281,190.8438 C241.2188,190.8438 239.6406,192.1406 239.6406,193.8594 C239.6406,194.8281 240.1719,195.7344 241.0313,196.2188 C241.5781,196.5313 242.125,196.7031 243.2344,196.8906 C244.3906,197.0938 244.6563,197.1563 245.0156,197.3438 C245.3906,197.5469 245.625,197.8906 245.625,198.25 C245.625,198.9844 244.6406,199.5313 243.3906,199.5313 C242.2656,199.5313 241.1875,199.0469 241.0156,198.4375 C240.8906,197.9688 240.8906,197.9688 240.7656,197.8594 C240.6094,197.7031 240.3906,197.6094 240.1563,197.6094 C239.875,197.6094 239.625,197.7344 239.4531,197.9531 C239.3438,198.125 239.2969,198.3125 239.2969,198.7344 L239.2969,199.8594 C239.2969,200.625 239.5781,200.9844 240.1719,200.9844 C240.4375,200.9844 240.5625,200.9219 240.8438,200.5781 C241.6875,201.0156 242.5781,201.2344 243.5,201.2344 C245.8281,201.2344 247.3906,200.0469 247.3906,198.2813 C247.3906,197.3906 247.0781,196.7031 246.3906,196.1563 C245.8594,195.7344 245.2188,195.4844 243.7344,195.2188 C242.4688,194.9844 242.375,194.9531 242.0469,194.7813 C241.6719,194.5938 241.4063,194.2031 241.4063,193.8438 C241.4063,193.1094 242.2656,192.5469 243.3281,192.5469 C244.3906,192.5469 245.2031,193.0156 245.3594,193.6875 C245.4688,194.2344 245.4688,194.2344 245.5938,194.375 C245.7344,194.5 245.9688,194.6094 246.2031,194.6094 C246.4688,194.6094 246.7188,194.4688 246.8906,194.25 C247,194.0781 247.0313,193.9375 247.0313,193.4688 L247.0313,191.9688 Z " fill="#000000"/><text fill="#000000" font-family="sans-serif" font-size="14" lengthAdjust="spacing" textLength="59" x="263.75" y="200.8467">Request</text><line style="stroke:#181818;stroke-width:0.5;" x1="187.5" x2="366.5" y1="212" y2="212"/><text fill="#000000" font-family="sans-serif" font-size="14" lengthAdjust="spacing" textLength="148" x="192.5" y="228.9951">Operation operation</text><text fill="#000000" font-family="sans-serif" font-size="14" lengthAdjust="spacing" textLength="85" x="192.5" y="245.292">int8_t *data</text><text fill="#000000" font-family="sans-serif" font-size="14" lengthAdjust="spacing" textLength="165" x="192.5" y="261.5889">unsigned start_address</text><text fill="#000000" font-family="sans-serif" font-size="14" lengthAdjust="spacing" textLength="157" x="192.5" y="277.8857">unsigned end_address</text><text fill="#000000" font-family="sans-serif" font-size="14" lengthAdjust="spacing" textLength="68" x="192.5" y="294.1826">Lock lock</text><text fill="#000000" font-family="sans-serif" font-size="14" lengthAdjust="spacing" textLength="94" x="192.5" y="310.4795">Status status</text><text fill="#000000" font-family="sans-serif" font-size="14" lengthAdjust="spacing" textLength="169" x="192.5" y="326.7764">sc_event transfer_done</text><line style="stroke:#181818;stroke-width:0.5;" x1="187.5" x2="366.5" y1="334.0781" y2="334.0781"/></g><!--link MasterDirect to DirectIF--><g id="link_MasterDirect_DirectIF"><path codeLine="86" d="M852,91.68 C852,123.89 852,171.99 852,210.15 " fill="none" id="MasterDirect-to-DirectIF" style="stroke:#181818;stroke-width:1.0;stroke-dasharray:7.0,7.0;"/><polygon fill="#181818" points="852,216.15,856,207.15,852,211.15,848,207.15,852,216.15" style="stroke:#181818;stroke-width:1.0;"/></g><!--link MasterNonBlocking to NonBlockingIF--><g id="link_MasterNonBlocking_NonBlockingIF"><path codeLine="87" d="M668,91.68 C668,123.89 668,171.99 668,210.15 " fill="none" id="MasterNonBlocking-to-NonBlockingIF" style="stroke:#181818;stroke-width:1.0;stroke-dasharray:7.0,7.0;"/><polygon fill="#181818" points="668,216.15,672,207.15,668,211.15,664,207.15,668,216.15" style="stroke:#181818;stroke-width:1.0;"/></g><!--link MasterBlocking to BlockingIF--><g id="link_MasterBlocking_BlockingIF"><path codeLine="88" d="M476.834,91.68 C477.823,123.89 479.299,171.9928 480.47,210.1528 " fill="none" id="MasterBlocking-to-BlockingIF" style="stroke:#181818;stroke-width:1.0;stroke-dasharray:7.0,7.0;"/><polygon fill="#181818" points="480.654,216.15,484.3761,207.0315,480.5006,211.1524,476.3798,207.2769,480.654,216.15" style="stroke:#181818;stroke-width:1.0;"/></g><!--reverse link DirectIF to Bus--><g id="link_DirectIF_Bus"><path d="M804.6616,319.6298 C782.2806,346.8798 764.163,368.93 737.356,401.57 " fill="none" id="DirectIF-backto-Bus" style="stroke:#181818;stroke-width:1.0;stroke-dasharray:7.0,7.0;"/><polygon fill="none" points="816.086,305.72,800.025,315.8217,809.2982,323.4379,816.086,305.72" style="stroke:#181818;stroke-width:1.0;"/></g><!--reverse link NonBlockingIF to Bus--><g id="link_NonBlockingIF_Bus"><path d="M668,323.72 C668,350.97 668,368.93 668,401.57 " fill="none" id="NonBlockingIF-backto-Bus" style="stroke:#181818;stroke-width:1.0;stroke-dasharray:7.0,7.0;"/><polygon fill="none" points="668,305.72,662,323.72,674,323.72,668,305.72" style="stroke:#181818;stroke-width:1.0;"/></g><!--reverse link BlockingIF to Bus--><g id="link_BlockingIF_Bus"><path d="M529.8023,319.5688 C552.4273,346.8188 570.792,368.93 597.891,401.57 " fill="none" id="BlockingIF-backto-Bus" style="stroke:#181818;stroke-width:1.0;stroke-dasharray:7.0,7.0;"/><polygon fill="none" points="518.304,305.72,525.186,323.4016,534.4186,315.736,518.304,305.72" style="stroke:#181818;stroke-width:1.0;"/></g><!--reverse link ArbiterIF to Arbiter--><g id="link_ArbiterIF_Arbiter"><path d="M471.8844,747.2354 C464.2684,792.1284 454.43,850.124 447.596,890.405 " fill="none" id="ArbiterIF-backto-Arbiter" style="stroke:#181818;stroke-width:1.0;stroke-dasharray:7.0,7.0;"/><polygon fill="none" points="474.895,729.489,465.9689,746.2319,477.7998,748.239,474.895,729.489" style="stroke:#181818;stroke-width:1.0;"/></g><!--link Bus to SlaveIF--><g id="link_Bus_SlaveIF"><path codeLine="93" d="M744.168,572.24 C762.261,592.25 777.1708,608.7416 794.0348,627.3916 " fill="none" id="Bus-to-SlaveIF" style="stroke:#181818;stroke-width:1.0;stroke-dasharray:7.0,7.0;"/><polygon fill="#181818" points="798.059,631.842,794.9896,622.4836,794.7055,628.1334,789.0558,627.8492,798.059,631.842" style="stroke:#181818;stroke-width:1.0;"/></g><!--link Bus to ArbiterIF--><g id="link_Bus_ArbiterIF"><path codeLine="94" d="M590.59,572.24 C563.762,601.435 539.1728,628.1951 517.8968,651.3481 " fill="none" id="Bus-to-ArbiterIF" style="stroke:#181818;stroke-width:1.0;stroke-dasharray:7.0,7.0;"/><polygon fill="#181818" points="513.837,655.766,522.872,651.8456,517.2201,652.0844,516.9814,646.4326,513.837,655.766" style="stroke:#181818;stroke-width:1.0;"/></g><!--reverse link DirectIF to SlaveIF--><g id="link_DirectIF_SlaveIF"><path d="M852,323.55 C852,400.85 852,544.162 852,631.772 " fill="none" id="DirectIF-backto-SlaveIF" style="stroke:#181818;stroke-width:1.0;"/><polygon fill="none" points="852,305.55,846,323.55,858,323.55,852,305.55" style="stroke:#181818;stroke-width:1.0;"/></g><!--reverse link SlaveIF to UART--><g id="link_SlaveIF_UART"><path d="M865.1436,770.9804 C868.2656,789.3834 868.789,792.468 872.266,812.964 " fill="none" id="SlaveIF-backto-UART" style="stroke:#181818;stroke-width:1.0;stroke-dasharray:7.0,7.0;"/><polygon fill="none" points="862.133,753.234,859.2281,771.984,871.0591,769.9769,862.133,753.234" style="stroke:#181818;stroke-width:1.0;"/></g><!--reverse link UART to UARTLogic--><g id="link_UART_UARTLogic"><path codeLine="97" d="M890,1036.43 C890,1055.397 890,1063.618 890,1083.908 " fill="none" id="UART-backto-UARTLogic" style="stroke:#181818;stroke-width:1.0;"/><polygon fill="none" points="890,1024.43,886,1030.43,890,1036.43,894,1030.43,890,1024.43" style="stroke:#181818;stroke-width:1.0;"/></g><!--reverse link SlaveIF to FastMem--><g id="link_SlaveIF_FastMem"><path d="M942.7459,764.2967 C966.5009,783.1577 978.504,793.089 1002,813 C1021.85,829.823 1043.13,848.724 1061.97,865.779 " fill="none" id="SlaveIF-backto-FastMem" style="stroke:#181818;stroke-width:1.0;stroke-dasharray:7.0,7.0;"/><polygon fill="none" points="928.649,753.104,939.015,768.9957,946.4768,759.5977,928.649,753.104" style="stroke:#181818;stroke-width:1.0;"/></g><!--reverse link SlaveIF to SlowMem--><g id="link_SlaveIF_SlowMem"><path d="M787.5788,766.7504 C766.4928,790.7264 753.67,805.306 730.709,831.414 " fill="none" id="SlaveIF-backto-SlowMem" style="stroke:#181818;stroke-width:1.0;stroke-dasharray:7.0,7.0;"/><polygon fill="none" points="799.466,753.234,783.0733,762.788,792.0843,770.7128,799.466,753.234" style="stroke:#181818;stroke-width:1.0;"/></g><!--SRC=[hLPBR-8m4BxpAtpSPGNdFI0asgOFbS9koAg7gehSPA1M4vkr7Tggwd_ViHCdJaZVUm1iVzyyFJE6SGroJHCWHqn2ei-EoMH2L1Ap6fXEoTE0a1_aYTueBMcYdycD45ab4G9Dltr_XN0fcGPaF0yQdGUPIEuOtxpJt4fJNIXoK4ZrWZsVqMTm8VW7RUu4Iqc_CGirLfACAaKkg49rPSYLWLoaHLPfRzESBsyIFRzxkKqCgupku6FvV3MLBhuEMd35DXnISW8QcLBFqbI2Kgyp0vusF1VXCKPu0NdbyLQoF4vkAUUGEQT71ECWmnposEvgbSfOZccfqiE0fmG_3U9ihJ9ntzZwgXc3jSoq43pQ2guWJXwJ33hWFMKwJaJ1jGL68_mUZydgCBu8ejFb4Mvi8iiQG_9SYAsNj3-pCEgF0hN81oTkIs1Ykd2Af_6EPYpj0rAgQIchVLbHw8gZEy8jf9QsCHhNvcB34Z8iJDuoixO8ogtPMammpJzZFIL3-M3s_PWkCJ_WKkj_ZzgURuNKaye99CLiNRjYkFPOOgDOOgyGfgHNwjvqa1FxMeRVzbH_obFTu-bdwx_KQcHmVBIE4i7NR5F8iXUQYezEms3MhlWG4c0xY6vbCvii44dALSvqZVYpRoPlC03vpkaNmjy253Qy5PCKnvmxakMlkhfkEgvI_kAOShm379elZ1StcuTcQ9grZMpKU8Bd2tZGrRv2RTodbASPj07_iLjk0IDWWlj2tglHnRkHnbTtloGJM02FYoA_RhkL5582JggARCPfwvaRZwVr_uR1_eDbuDR3E-YyVeRWeKqUMRxD84VJgj7VYxRLzrBsS7UX7gSke84HDcvLLrRl6yR-auitXzsmvweTrPuHfzAUYv4tC3iFOezC-nNh8G0lSbSOfkYYSBPO7GTXl3ptTs7m-q-mYloZozbPQn-4uJB4cxOQw_AnIasxuizbU1O5ZZ77x5fmlZmyZnTBjre5aLkUeEeeE489RC42wyOLc15hB0YtmjDgSWoh-TS_aNp06qV6h77At3kkgwIKSmdtsA2mmzmHRKRA6cIS2Ww3vty0]--></g></svg>